<svg id="coins-svgrepo-com" xmlns="http://www.w3.org/2000/svg" width="50" height="50" viewBox="0 0 50 50">
  <path id="Path_145" data-name="Path 145" d="M19.6,21.3l-.257.093,3.45.722A43.731,43.731,0,0,0,31.753,23a46.717,46.717,0,0,0,4.737-.241,42.1,42.1,0,0,0,7.235-1.267L44,21.436l-.034-.013C50.783,19.518,55,16.143,55,13c0-4.424-8.6-9-23-9S9,8.576,9,13C9,16.076,13.04,19.372,19.6,21.3Zm8.857-4.4c-1.623-.529-2.546-1.435-2.746-2.692l-.108-.679-.673-.143a1.106,1.106,0,0,1-.333-.12l.141-.462a1.27,1.27,0,0,1,.663-.368l.449-.128.19-.426a4.013,4.013,0,0,1,.813-1.19c.15-.152.274-.265.374-.356a2.028,2.028,0,0,0,.646-.875,10.071,10.071,0,0,0,3.443.4c.143-.006.288-.009.436-.009,4.261,0,5.3,1.169,5.712,2.048l.193.414.439.125a1.358,1.358,0,0,1,.66.352l.148.481a1.111,1.111,0,0,1-.333.119l-.674.142-.108.68c-.2,1.257-1.124,2.163-2.746,2.692l-.777.253.214,1.858a1.852,1.852,0,0,0,1.249,1.475l.734.275c-.24.026-.489.036-.732.057-1.193.091-2.426.153-3.735.153a48.531,48.531,0,0,1-4.911-.245l.661-.239A1.852,1.852,0,0,0,29.022,19l.213-1.85ZM32,6c13.982,0,21,4.488,21,7,0,2.06-4.316,5.6-12.379,7.171l-4.17-1.562-.012-.1a5.23,5.23,0,0,0,3.191-3.371,2.257,2.257,0,0,0,1.064-.9,1.759,1.759,0,0,0,.165-1.424l-.189-.616a2.613,2.613,0,0,0-1.6-1.542c-1.476-2.507-4.854-2.809-7.317-2.809-.175,0-.348,0-.518.011a7.8,7.8,0,0,1-2.852-.337,2.608,2.608,0,0,1-.619-.288,1.271,1.271,0,0,0-1.3-.093l-.6.342v.616a4.026,4.026,0,0,0,.057.675c0,.015,0,.03.007.044l-.047.042c-.119.109-.267.244-.446.425a6,6,0,0,0-1.022,1.382,2.605,2.605,0,0,0-1.576,1.531l-.189.617a1.759,1.759,0,0,0,.166,1.424,2.259,2.259,0,0,0,1.063.9A5.232,5.232,0,0,0,27.066,18.5l-.012.1-4.112,1.484C15.155,18.481,11,15.024,11,13,11,10.488,18.018,6,32,6Z" transform="translate(-9)" fill="#313131"/>
  <path id="Path_146" data-name="Path 146" d="M45,24.706V24.5c2.629-1.849,4.167-4.128,4.167-6.623v-7.04C49.167,4.658,39.494,0,26.667,0s-22.5,4.658-22.5,10.833v1.892C1.448,14.547,0,16.763,0,19.167v7.04c0,2.747,1.862,5.236,5,7.174v5.326C5,45.039,14.883,50,27.5,50S50,45.039,50,38.707v-7.04C50,29.012,48.262,26.618,45,24.706Zm3.333,6.961c0,5.328-9.735,10-20.833,10-.479,0-.955-.012-1.428-.029-.141-.005-.282-.01-.422-.017q-.619-.027-1.229-.075c-.265-.021-.527-.046-.79-.072l-.347-.035C16.427,40.7,10.6,38.229,8.045,35.106c-.033-.042-.069-.083-.1-.125s-.072-.1-.11-.149a29.2,29.2,0,0,0,3.817,1.313c3.7,2.433,9.455,3.827,15.849,3.827,11.295,0,19.167-4.377,19.167-8.3a4.472,4.472,0,0,0-2.04-3.36c.022-.059.037-.12.057-.18.028-.087.057-.173.082-.259s.052-.2.075-.3.041-.175.058-.263.032-.206.045-.308.024-.178.033-.267c0-.026.007-.052.009-.077C46.708,27.814,48.333,29.492,48.333,31.667ZM30.942,43.2l.074-.007c.478-.039.949-.088,1.417-.143L32.794,43c.463-.058.922-.121,1.372-.193V47.8c-1.077.174-2.191.309-3.333.4v-5Zm4.891-.692.138-.032c.448-.095.892-.195,1.325-.3l.168-.045c.292-.075.583-.153.868-.234V46.88q-1.2.346-2.5.617V42.5ZM40,41.362l.133-.047.187-.068c.344-.124.681-.254,1.012-.388l.281-.114.055-.022v4.969q-.8.346-1.667.655V41.362Zm3.333-1.415c.143-.073.282-.15.421-.225.081-.043.162-.087.241-.131.322-.18.634-.365.933-.555L45,38.992v4.854a16.042,16.042,0,0,1-1.667,1.036V39.947ZM10,38.992c.519.333,1.082.645,1.667.946v4.944A16.184,16.184,0,0,1,10,43.846Zm-5-12.5.071.044q.45.285.933.555c.079.044.161.087.241.131.139.076.278.152.421.225v4.22h-1.2q-.241-.159-.468-.321Zm3.669,1.867q.495.2,1.012.388c.063.022.123.047.187.068l.133.047v4.984q-.87-.307-1.667-.655V28.221l.055.023C8.481,28.283,8.575,28.321,8.669,28.358ZM12.7,29.668c.433.109.877.209,1.325.3l.138.032V35l-.142-.03q-.671-.141-1.32-.305c-.353-.089-.7-.184-1.038-.282V29.388c.285.082.575.159.868.234Zm4.863.88c.468.054.939.1,1.417.143l.074.007.109.007v4.987c-.573-.044-1.144-.093-1.707-.159-.272-.032-.539-.071-.807-.108s-.546-.087-.819-.13V30.311c.451.073.91.136,1.373.193Zm4.934.286c.559,0,1.113-.019,1.667-.041V35.8l-.052,0c-.535.02-1.072.033-1.614.033-.558,0-1.112-.03-1.667-.052V30.8l.112,0C21.459,30.821,21.977,30.833,22.5,30.833ZM5.833,15.241c.013.017.029.033.043.048q.277.346.6.682c.048.05.1.1.146.148q.283.286.592.563c.049.044.1.088.147.132s.1.082.143.122v4.642a5.465,5.465,0,0,1-1.667-3.7Zm3.333,2.918.071.044q.45.285.933.555c.079.044.161.087.241.131.139.076.278.152.421.225v4.935a16.184,16.184,0,0,1-1.667-1.036V18.158Zm3.333,1.73.055.023c.093.039.187.077.281.114q.495.2,1.012.388c.063.023.123.047.187.068l.133.047v4.984q-.87-.307-1.667-.655V19.888Zm3.333,1.167c.285.082.575.159.867.234l.168.045c.433.109.877.209,1.325.3l.138.032v4.993q-1.3-.27-2.5-.617V21.055ZM20,21.977c.451.073.91.136,1.372.193l.361.043c.468.054.939.1,1.417.142l.074.007.109.007v5c-1.142-.089-2.256-.223-3.333-.4V21.977Zm6.667.523c.523,0,1.041-.013,1.555-.031l.112,0v4.981c-.555.022-1.107.052-1.667.052s-1.116-.014-1.667-.035v-5l.112,0C25.626,22.487,26.143,22.5,26.667,22.5Zm3.517-.143c.478-.039.949-.088,1.417-.142l.361-.043c.462-.058.922-.121,1.372-.193V26.96c-.313.05-.62.108-.938.152-.167.022-.332.047-.5.068-.624.077-1.258.131-1.895.18V22.372l.109-.007C30.134,22.362,30.158,22.358,30.183,22.357Zm6.281-1.022.168-.045c.292-.075.583-.153.868-.234v4.991l-.322.09h0c-.187.052-.375.1-.565.153q-.689.178-1.4.329L35,26.662V21.67l.138-.032C35.588,21.543,36.031,21.443,36.464,21.334Zm3.022-.921c.344-.124.681-.254,1.012-.388l.281-.114.055-.023v4.969q-.8.346-1.667.655V20.529l.133-.047Zm3.675-1.657c.322-.18.634-.365.933-.555l.071-.044v4.854A16.041,16.041,0,0,1,42.5,24.047V19.112c.143-.073.282-.15.421-.225C43,18.844,43.083,18.8,43.162,18.757Zm-22.722,18.7.094,0,.107,0,.21.007c.545.019,1.093.032,1.65.032q.585,0,1.161-.014c.126,0,.249-.009.374-.013l.156-.006.228-.008c.129-.005.259-.008.387-.015.15-.007.3-.018.448-.028.226-.013.452-.025.676-.042.164-.013.326-.028.489-.042.207-.017.414-.034.618-.054.163-.016.323-.036.485-.053.2-.022.4-.043.6-.068.163-.02.323-.044.485-.066.193-.027.387-.052.577-.081.163-.024.322-.052.482-.078.187-.031.375-.06.56-.093.16-.028.317-.06.475-.09.18-.034.362-.068.539-.1.158-.033.314-.068.471-.1.174-.038.348-.076.52-.116.154-.037.306-.075.458-.113.17-.042.34-.084.507-.128.148-.039.293-.081.44-.122.166-.047.333-.093.5-.142.145-.043.288-.088.43-.133.159-.05.318-.1.473-.151s.281-.1.42-.144.305-.106.454-.161.272-.1.406-.154.293-.113.437-.172.259-.108.388-.163.284-.121.423-.183.248-.113.37-.171.271-.127.4-.193.238-.12.356-.181.257-.133.382-.2.228-.126.339-.189.244-.14.363-.211.214-.13.319-.2.232-.147.344-.221.2-.136.3-.2.217-.153.323-.23.188-.14.28-.211.2-.158.3-.239.175-.144.261-.218.188-.164.28-.247.162-.148.24-.224.173-.169.257-.254.148-.153.22-.231.156-.173.232-.261.135-.158.2-.238.14-.178.207-.268.12-.162.177-.243c.046-.066.091-.132.134-.2A2.75,2.75,0,0,1,45,31.667C45,33.92,38.823,38.3,27.5,38.3a36.081,36.081,0,0,1-8.483-.933C19.486,37.407,19.961,37.432,20.439,37.452ZM35,33.846V28.828l.159-.058c.306-.109.618-.212.914-.33.2-.081.393-.172.592-.257v5.007Q35.87,33.537,35,33.846Zm-3.514-4.01c.349-.08.7-.154,1.044-.243.273-.072.534-.157.8-.234v5.021q-1.2.346-2.5.617V29.988C31.054,29.941,31.268,29.886,31.486,29.836Zm6.847,2.546v-4.8c.574-.172,1.128-.357,1.667-.552v4.32A16.185,16.185,0,0,1,38.333,32.382ZM26.655,30.63c.275-.028.543-.068.816-.1.4-.047.807-.09,1.2-.15.167-.025.328-.059.493-.087V35.3l-.211.034c-.249.038-.5.076-.753.11-.2.027-.391.055-.589.079q-.646.078-1.307.135l-.438.037-.036,0V30.692C26.107,30.669,26.383,30.657,26.655,30.63Zm16.678-4.423a4.561,4.561,0,0,1-.411,1.859l-.076.157a6.821,6.821,0,0,1-1.005,1.488c-.05.057-.1.114-.148.17l-.027.027V26.355c.583-.259,1.141-.533,1.667-.821v.673Zm-30,14.513q.8.339,1.667.639v4.987q-.87-.307-1.667-.655Zm3.333,1.163c.807.231,1.637.442,2.5.622V47.5q-1.3-.27-2.5-.617Zm4.167.927c.13.021.265.037.4.057.2.03.4.058.6.085.314.042.629.083.948.118s.637.068.958.1c.143.013.285.027.429.038v5c-1.142-.089-2.256-.223-3.333-.4ZM47.5,15.241v2.633a5.465,5.465,0,0,1-1.667,3.7V16.937c.048-.04.095-.081.143-.122s.1-.088.147-.132q.311-.277.592-.563c.048-.049.1-.1.146-.147q.319-.335.6-.682C47.471,15.272,47.487,15.257,47.5,15.241ZM26.667,1.667c11.683,0,20.833,4.027,20.833,9.167,0,5.328-9.735,10-20.833,10s-20.833-4.672-20.833-10C5.833,5.693,14.984,1.667,26.667,1.667ZM4.167,14.778v3.1c0,.193.01.383.028.573.006.063.018.126.026.189.016.126.032.252.055.377.014.074.034.147.052.222.026.112.051.224.082.335.023.078.051.156.077.234.034.1.068.208.108.312.031.081.067.16.1.24.043.1.086.2.133.3.039.08.082.159.124.238.052.1.1.193.159.288.047.079.1.158.147.237.059.093.12.186.183.278s.112.157.169.234.136.18.207.269.126.153.191.23.153.175.233.262.138.149.21.223.17.171.257.256.15.145.228.216.186.167.282.248.162.141.247.21c.1.082.2.162.307.243.087.067.172.135.262.2.108.08.221.158.333.237.092.064.181.128.275.191.118.079.242.157.365.234.094.059.186.12.282.178.133.081.271.158.408.237.092.052.182.107.276.158.171.094.347.185.524.276.066.034.129.069.2.1q.366.184.749.358c.088.04.181.078.271.118.172.076.342.152.519.225.109.045.222.088.333.132.162.064.323.129.488.192.122.046.246.089.369.133.161.058.321.116.484.172.129.044.261.086.392.128.163.053.326.106.492.157.136.042.274.082.412.122.166.048.332.1.5.143.142.039.284.076.428.113.17.044.34.088.512.13.146.036.293.07.442.1.175.04.351.08.528.118.15.033.3.063.452.094.18.037.36.072.542.106.153.028.306.057.46.083.186.033.374.063.563.093l.465.073c.192.028.386.055.58.081.156.021.312.042.469.061.2.024.4.047.6.068.155.017.309.034.465.049.208.02.418.037.628.055.155.013.308.027.464.037.219.016.441.028.663.041.147.008.294.018.443.026l.094.006q-1,.046-2.008.048c-11.1,0-20.833-4.673-20.833-10A5.868,5.868,0,0,1,4.167,14.778Zm-2.5,11.428V23.573c.013.017.029.032.043.048q.278.346.6.682c.047.05.1.1.146.148q.282.286.592.563c.049.044.1.088.147.132s.095.083.143.123v4.642A5.465,5.465,0,0,1,1.667,26.207Zm5,12.5V36.073a11.773,11.773,0,0,0,1.667,1.688v4.649A5.461,5.461,0,0,1,6.667,38.707ZM25.833,48.3v-5l.121,0c.512.018,1.027.031,1.546.031s1.041-.013,1.555-.031l.112,0v5c-.551.021-1.106.035-1.667.035S26.384,48.319,25.833,48.3Zm22.5-12.224v2.633a5.465,5.465,0,0,1-1.667,3.7V37.77c.048-.04.1-.081.143-.122s.1-.088.147-.132q.311-.278.592-.563c.048-.049.1-.1.146-.147q.319-.335.6-.682C48.3,36.106,48.32,36.09,48.333,36.074Z" transform="translate(0)" fill="#313131"/>
</svg>
