<svg xmlns="http://www.w3.org/2000/svg" width="40" height="39" viewBox="0 0 40 39">
  <path id="XMLID_238_" d="M38.182,0a1.8,1.8,0,0,0-1.818,1.773V15.22L21.286.519A1.852,1.852,0,0,0,19.3.135a1.773,1.773,0,0,0-1.122,1.638V15.22L3.1.519A1.852,1.852,0,0,0,1.122.135,1.773,1.773,0,0,0,0,1.772V37.227a1.773,1.773,0,0,0,1.122,1.638A1.854,1.854,0,0,0,3.1,38.48l15.078-14.7V37.227A1.773,1.773,0,0,0,19.3,38.865a1.854,1.854,0,0,0,1.981-.384l15.078-14.7V37.227a1.819,1.819,0,0,0,3.636,0V1.773A1.8,1.8,0,0,0,38.182,0Z" transform="translate(0 0)" fill="#313131"/>
</svg>
