<svg xmlns="http://www.w3.org/2000/svg" width="56.531" height="56.752" viewBox="0 0 56.531 56.752">
  <path id="key-svgrepo-com" d="M57.129,16.374l-20.9,30.5.183.127,3.82,2.667,20.92-30.532-4.022-2.76Zm10.763,7.435c-2.409,3.515-5.273,2.76-8.156,1.064l-5.818,8.709c2.543,1.978,4.357,4.26,2.222,7.376l5.135,3.521,3.454-5.038-1.759-1.094a2.564,2.564,0,1,1,1.274-2.218c0,.023,0,.048,0,.071l1.9,1.184,2.144-3.133-4.5-2.808L65.1,29.325l1.785,1.113L68.09,28.5l2.9,1.8,2.043-2.98-5.139-3.518ZM31.4,46.518c-.037,0-.075,0-.112.008a1.687,1.687,0,0,0-.3.067,2.531,2.531,0,0,0-1.21.949A2.485,2.485,0,0,0,29.3,48.99a1.255,1.255,0,0,0,.627,1.09l9.153,6.389a1.047,1.047,0,0,0,1.09.138,2.728,2.728,0,0,0,1.21-.982A2.667,2.667,0,0,0,41.9,54.17a1.049,1.049,0,0,0-.523-.982L32.217,46.8a1.3,1.3,0,0,0-.814-.28Zm-6.8,5.277a8.216,8.216,0,0,0-6.89,3.256c-2.026,2.956-1.418,7.141,1.15,10.789a4.992,4.992,0,0,0-.344,1.815,5.076,5.076,0,0,0,5.056,5.056,5.01,5.01,0,0,0,2.8-.851c5.163,2.209,10.524,1.519,12.94-2.005,2.234-3.26,1.3-8-1.957-11.868l-7.54-5.262a14.772,14.772,0,0,0-4.929-.93c-.095,0-.19,0-.284,0ZM23.572,64.835a2.821,2.821,0,1,1-2.823,2.819,2.8,2.8,0,0,1,2.823-2.819Z" transform="translate(-16.499 -16.374)" fill="#313131"/>
</svg>
