<svg xmlns="http://www.w3.org/2000/svg" width="58.182" height="40" viewBox="0 0 58.182 40">
  <path id="shipping-fast-solid-svgrepo-com_1_" data-name="shipping-fast-solid-svgrepo-com (1)" d="M0,6V9.636H34.545V36.909H23.352a7.2,7.2,0,0,0-13.977,0h-2.1V27.818H3.636V40.545H9.375a7.2,7.2,0,0,0,13.977,0H38.466a7.2,7.2,0,0,0,13.977,0h5.739V25.716l-.114-.284L54.432,14.523l-.4-1.25H38.182V6Zm1.818,7.273v3.636H18.182V13.273Zm36.364,3.636H51.421l3.125,9.318V36.909h-2.1a7.2,7.2,0,0,0-13.977,0h-.284ZM3.636,20.545v3.636H14.545V20.545ZM16.364,35.091a3.636,3.636,0,1,1-3.636,3.636A3.607,3.607,0,0,1,16.364,35.091Zm29.091,0a3.636,3.636,0,1,1-3.636,3.636A3.607,3.607,0,0,1,45.455,35.091Z" transform="translate(0 -6)" fill="#313131"/>
</svg>
