<svg xmlns="http://www.w3.org/2000/svg" width="27.077" height="25.937" viewBox="0 0 27.077 25.937">
  <g id="Icon_feather-shopping-cart" data-name="Icon feather-shopping-cart" transform="translate(1 1)">
    <path id="Path_3" data-name="Path 3" d="M14.28,31.14A1.14,1.14,0,1,1,13.14,30,1.14,1.14,0,0,1,14.28,31.14Z" transform="translate(-4.021 -8.342)" fill="none" stroke="#fff" stroke-linecap="round" stroke-linejoin="round" stroke-width="2"/>
    <path id="Path_4" data-name="Path 4" d="M30.78,31.14A1.14,1.14,0,1,1,29.64,30,1.14,1.14,0,0,1,30.78,31.14Z" transform="translate(-7.982 -8.342)" fill="none" stroke="#fff" stroke-linecap="round" stroke-linejoin="round" stroke-width="2"/>
    <path id="Path_5" data-name="Path 5" d="M1.5,1.5H6.059L9.114,16.763a2.28,2.28,0,0,0,2.28,1.835h11.08a2.28,2.28,0,0,0,2.28-1.835L26.577,7.2H7.2" transform="translate(-1.5 -1.5)" fill="none" stroke="#fff" stroke-linecap="round" stroke-linejoin="round" stroke-width="2"/>
  </g>
</svg>
