<svg xmlns="http://www.w3.org/2000/svg" width="82" height="58.871" viewBox="0 0 82 58.871">
  <path id="E-mail" d="M.04,55.914V7.474q0-.084.237-1.6L27.083,30.265.356,57.6A7.527,7.527,0,0,1,.04,55.914ZM3.6,2.514A3.228,3.228,0,0,1,4.942,2.26h72.2a4.236,4.236,0,0,1,1.424.252L51.676,26.985l-3.558,3.028L41.08,36.152l-7.038-6.139L30.48,26.985Zm.079,58.364,26.965-27.5,10.438,9,10.438-9,26.965,27.5a3.6,3.6,0,0,1-1.344.252H4.942a3.4,3.4,0,0,1-1.265-.252Zm51.4-30.612L81.8,5.876a5.312,5.312,0,0,1,.237,1.6v48.44A6.827,6.827,0,0,1,81.8,57.6Z" transform="translate(-0.04 -2.259)" fill="#fff"/>
</svg>
