<svg xmlns="http://www.w3.org/2000/svg" width="82" height="58.868" viewBox="0 0 82 58.868">
  <path id="Phone-number" d="M75.167,2.5H6.833A6.71,6.71,0,0,0,0,9.041V54.827a6.71,6.71,0,0,0,6.833,6.541H75.167a6.68,6.68,0,0,0,6.8-6.541L82,9.04A6.711,6.711,0,0,0,75.167,2.5ZM27.333,12.311a10.463,10.463,0,0,1,9.742,5.948,9.4,9.4,0,0,1-2.151,10.747,10.885,10.885,0,0,1-11.373,2.2,9.829,9.829,0,0,1-6.468-9.082,9.435,9.435,0,0,1,2.964-6.909,10.642,10.642,0,0,1,7.286-2.9Zm20.5,39.246h-41v-3.27c0-6.541,13.666-10.138,20.5-10.138s20.5,3.6,20.5,10.138ZM60.987,38.475h5.6l5.159,6.541-6.8,6.508a24.209,24.209,0,0,1-10.264-19.59,24.209,24.209,0,0,1,10.264-19.59l6.8,6.508-5.159,6.541h-5.6a18.487,18.487,0,0,0,0,13.082Z" transform="translate(0 -2.5)" fill="#fff"/>
</svg>
